<svg width="35" height="32" viewBox="0 0 35 32" fill="none" xmlns="http://www.w3.org/2000/svg">
<g clip-path="url(#clip0_66_40)">
<path fill-rule="evenodd" clip-rule="evenodd" d="M5.00064 22.9486C5.03486 21.3033 6.40612 19.9665 8.05145 20.0006C9.69697 20.0349 11.0338 21.4061 10.9993 23.0514C10.9651 24.6967 9.5939 26.0336 7.94858 25.9994C6.30328 25.9651 4.96645 24.5939 5.00064 22.9486ZM6.68037 22.9823C6.68037 23.7023 7.26304 24.3191 7.98304 24.3191C8.70274 24.3191 9.28542 23.7707 9.31989 23.0165C9.31989 22.2966 8.7372 21.6797 8.01725 21.6797C7.29726 21.6797 6.68037 22.2624 6.68037 22.9823Z" fill="#039F4E"/>
<path d="M9 24.5001C9 24.7762 8.77612 25 8.49997 25C8.22382 25 8 24.7762 8 24.5001C8 24.224 8.22382 24 8.49997 24C8.77612 24 9 24.224 9 24.5001Z" fill="#039F4E"/>
<path fill-rule="evenodd" clip-rule="evenodd" d="M26.0006 22.9486C26.0348 21.3033 27.4061 19.9665 29.0514 20.0006C30.6967 20.0349 32.0336 21.4061 31.9994 23.0514C31.9652 24.6967 30.5938 26.0336 28.9485 25.9994C27.3033 25.9651 25.9664 24.5939 26.0006 22.9486ZM27.6801 22.9826C27.6801 23.7025 28.2628 24.3194 28.9827 24.3194C29.7027 24.3194 30.2854 23.7709 30.3196 23.0168C30.3196 22.2968 29.737 21.6799 29.0169 21.6799C28.297 21.6799 27.6801 22.2626 27.6801 22.9826Z" fill="#039F4E"/>
<path d="M30 23.5001C30 23.7762 29.7762 24 29.5 24C29.2238 24 29 23.7762 29 23.5001C29 23.224 29.2238 23 29.5 23C29.7762 23 30 23.224 30 23.5001Z" fill="#039F4E"/>
<path d="M24 23V24H25C24.9617 23.8333 24.9617 23.7 24.9617 23.5334C24.9617 23.3667 25 23.1667 25 23H24Z" fill="#039F4E"/>
<path fill-rule="evenodd" clip-rule="evenodd" d="M34 17.1943V22.9998L32.5349 23C32.1319 21.2049 30.63 19.9064 28.7985 19.9064C26.9669 19.9064 25.465 21.243 25.0621 23H24V12.0003L31.729 12L34 17.1943ZM30.2637 17.4997H32.1318L32.1318 17.4996C32.5347 17.4996 32.8278 17.0795 32.718 16.6594L31.5825 13.4512C31.436 13.0691 31.1065 12.84 30.74 12.84H25.4652C25.1355 12.84 24.879 13.1075 24.879 13.4512V15.0553C24.879 15.3228 25.0988 15.5519 25.3553 15.5519H27.5164C27.6993 15.5519 27.9194 15.6284 28.0658 15.781L29.8608 17.347C29.9706 17.4616 30.1173 17.4997 30.2637 17.4997Z" fill="#039F4E"/>
<path d="M34.596 23H33C33.0398 23.1667 33.0398 23.3667 33.0398 23.5334C33.0398 23.7 33.0398 23.8333 33 24H34.9948V23.3667C35.0349 23.1667 34.8353 23 34.596 23Z" fill="#039F4E"/>
<path d="M1.1046 22.1292H0.914336C0.419027 22.1292 0 22.5034 0 22.9456C0 23.3879 0.419055 23.7278 0.914336 23.7278H4.03824C4.00024 23.5577 4.00024 23.4218 4.00024 23.2517C4.00024 21.2789 5.79068 19.6802 8.00022 19.6802C10.2098 19.6802 12.0003 21.2788 12.0003 23.2517C12.0003 23.5238 11.9622 23.7618 11.924 24H24L23.9997 19H1.14294V22.1292H1.1046Z" fill="#039F4E"/>
<path fill-rule="evenodd" clip-rule="evenodd" d="M2 14H9L8.99971 20H2V14ZM2.37447 19.6159H8.6255L8.62521 14.385H6.08001V16.0774H4.91969V14.385H2.37447V19.6159Z" fill="#039F4E"/>
<path d="M6.48675 19H7.45939V17.8572H8L6.97303 17L6 17.8572H6.48671L6.48675 19Z" fill="#039F4E"/>
<path fill-rule="evenodd" clip-rule="evenodd" d="M9 12H16V18H9V12ZM9.37451 17.6159H15.6258L15.6255 12.3851H13.0802V14.0775H11.9198V12.3851H9.37451V17.6159Z" fill="#039F4E"/>
<path d="M14.2432 17H14.7298V15.8572H15L14.4864 15L14 15.8572H14.2432V17Z" fill="#039F4E"/>
<path fill-rule="evenodd" clip-rule="evenodd" d="M16 12H23V18H16V12ZM16.3743 17.6159H22.6256L22.6252 12.3851H20.0799V14.0775H18.9195V12.3851H16.3743V17.6159Z" fill="#039F4E"/>
<path d="M21.5404 17H22.5135V15.8572H23L22.0272 15L21 15.8572H21.5403L21.5404 17Z" fill="#039F4E"/>
<path fill-rule="evenodd" clip-rule="evenodd" d="M2 8H9L8.99971 14H2V8ZM2.37447 13.6541H8.6255V8.38461H6.08027L6.08001 10.077H4.91969V8.38461H2.37447V13.6541Z" fill="#039F4E"/>
<path d="M6.48675 13H7.45939V11.8572H8L6.97303 11L6 11.8572H6.48671L6.48675 13Z" fill="#039F4E"/>
<path fill-rule="evenodd" clip-rule="evenodd" d="M9 6H16V12H9V6ZM9.37451 11.6542H15.6258L15.6255 6.38467H13.0802V8.07707H11.9198V6.38467H9.37451V11.6542Z" fill="#039F4E"/>
<path d="M14.2432 11H14.7298V9.85723H15L14.4864 9L14 9.85723H14.2432V11Z" fill="#039F4E"/>
<path fill-rule="evenodd" clip-rule="evenodd" d="M16 6H23V12H16V6ZM16.3743 11.6542H22.6256L22.6252 6.38467H20.0799V8.07707H18.9195V6.38467H16.3743V11.6542Z" fill="#039F4E"/>
<path d="M21.5404 11H22.5135V9.85723H23L22.0272 9L21 9.85723H21.5403L21.5404 11Z" fill="#039F4E"/>
</g>
<defs>
<clipPath id="clip0_66_40">
<rect width="34.7586" height="32" fill="white"/>
</clipPath>
</defs>
</svg>
