<svg width="63" height="58" viewBox="0 0 63 58" fill="none" xmlns="http://www.w3.org/2000/svg">
<path fill-rule="evenodd" clip-rule="evenodd" d="M6.45264 23.3094C6.50476 20.8032 8.59359 18.7668 11.0999 18.8188C13.6065 18.871 15.6429 20.9598 15.5904 23.4661C15.5383 25.9724 13.4495 28.0088 10.9432 27.9567C8.43694 27.9045 6.40055 25.8157 6.45264 23.3094ZM9.01135 23.3608C9.01135 24.4575 9.89893 25.3972 10.9957 25.3972C12.092 25.3972 12.9796 24.5617 13.0321 23.4129C13.0321 22.3162 12.1445 21.3765 11.0478 21.3765C9.95105 21.3765 9.01135 22.2641 9.01135 23.3608Z" fill="#039F4E"/>
<path d="M12.3655 25.8061C12.3655 26.2515 12.0044 26.6124 11.559 26.6124C11.1136 26.6124 10.7526 26.2515 10.7526 25.8061C10.7526 25.3608 11.1136 24.9995 11.559 24.9995C12.0044 24.9995 12.3655 25.3608 12.3655 25.8061Z" fill="#039F4E"/>
<path fill-rule="evenodd" clip-rule="evenodd" d="M35.4849 23.3094C35.537 20.8032 37.6258 18.7668 40.1321 18.8188C42.6384 18.871 44.6748 20.9598 44.6227 23.4661C44.5706 25.9724 42.4817 28.0088 39.9754 27.9567C37.4692 27.9045 35.4328 25.8157 35.4849 23.3094ZM38.0432 23.3612C38.0432 24.4579 38.9308 25.3976 40.0275 25.3976C41.1242 25.3976 42.0119 24.5621 42.0639 23.4133C42.0639 22.3166 41.1764 21.3769 40.0796 21.3769C38.9829 21.3769 38.0432 22.2645 38.0432 23.3612Z" fill="#039F4E"/>
<path d="M41.3978 23.3867C41.3978 23.832 41.0368 24.193 40.5914 24.193C40.1459 24.193 39.7849 23.832 39.7849 23.3867C39.7849 22.9414 40.1459 22.5801 40.5914 22.5801C41.0368 22.5801 41.3978 22.9414 41.3978 23.3867Z" fill="#039F4E"/>
<path d="M33.3333 22.5801V24.193H34.4085C34.3673 23.9241 34.3673 23.7092 34.3673 23.4404C34.3673 23.1715 34.4085 22.849 34.4085 22.5801L33.3333 22.5801Z" fill="#039F4E"/>
<path fill-rule="evenodd" clip-rule="evenodd" d="M47.3117 14.6354V22.5803L45.2637 22.5806C44.7004 20.124 42.601 18.3469 40.0408 18.3469C37.4806 18.3469 35.3812 20.1761 34.818 22.5806H33.3333V7.52722L44.1372 7.52686L47.3117 14.6354ZM42.0889 15.0533H44.7002L44.7003 15.0532C45.2635 15.0532 45.6732 14.4783 45.5196 13.9033L43.9324 9.51283C43.7277 8.99 43.267 8.67644 42.7548 8.67644H35.3814C34.9206 8.67644 34.562 9.04249 34.562 9.51283V11.7081C34.562 12.0742 34.8692 12.3877 35.2278 12.3877H38.2487C38.5044 12.3877 38.812 12.4924 39.0166 12.7013L41.5257 14.8444C41.6793 15.0012 41.8843 15.0533 42.0889 15.0533Z" fill="#039F4E"/>
<path d="M47.844 22.5801H45.6989C45.7524 22.849 45.7524 23.1715 45.7524 23.4404C45.7524 23.7092 45.7524 23.9241 45.6989 24.193H48.3801V23.1715C48.434 22.849 48.1657 22.5801 47.844 22.5801L47.844 22.5801Z" fill="#039F4E"/>
<path d="M1.53417 21.9153H1.26991C0.581982 21.9153 0 22.4785 0 23.1442C0 23.81 0.58202 24.3218 1.26991 24.3218H5.60866C5.55588 24.0657 5.55588 23.8611 5.55588 23.605C5.55588 20.6352 8.04261 18.2286 11.1114 18.2286C14.1802 18.2286 16.667 20.6351 16.667 23.605C16.667 24.0147 16.6142 24.3729 16.5611 24.7315H33.3333L33.3329 17.2046H1.58741V21.9153L1.53417 21.9153Z" fill="#039F4E"/>
<path fill-rule="evenodd" clip-rule="evenodd" d="M2.68811 10.4834H12.3144L12.314 18.5479H2.68811V10.4834ZM3.20307 18.0316H11.7994L11.799 11.0009H8.29887V13.2756H6.70322V11.0009H3.20307V18.0316Z" fill="#039F4E"/>
<path d="M9.12555 17.4733H10.1714V15.9373H10.7527L9.64844 14.7852L8.60217 15.9373H9.12551L9.12555 17.4733Z" fill="#039F4E"/>
<path fill-rule="evenodd" clip-rule="evenodd" d="M12.3655 8.06396H21.9914V16.1285H12.3655V8.06396ZM12.8805 15.6122H21.4768L21.4764 8.58154H17.9763V10.8563H16.3806V8.58154H12.8805V15.6122Z" fill="#039F4E"/>
<path d="M19.3403 15.0539H20.3868V13.5179H20.9678L19.8633 12.3657L18.8173 13.5179H19.3403L19.3403 15.0539Z" fill="#039F4E"/>
<path fill-rule="evenodd" clip-rule="evenodd" d="M22.5806 8.06396H32.258V16.1285H22.5806V8.06396ZM23.098 15.6122H31.7404L31.7399 8.58154H28.221V10.8563H26.6168V8.58154H23.098V15.6122Z" fill="#039F4E"/>
<path d="M29.6133 15.0539H30.6597V13.5179H31.1828L30.1367 12.3657L29.0322 13.5179H29.6132L29.6133 15.0539Z" fill="#039F4E"/>
<path fill-rule="evenodd" clip-rule="evenodd" d="M2.68811 2.41943H12.3144L12.314 10.4839H2.68811V2.41943ZM3.20307 10.019H11.7994V2.93638H8.29923L8.29887 5.2111H6.70322V2.93638H3.20307V10.019Z" fill="#039F4E"/>
<path d="M9.12555 8.87127H10.1714V7.33529H10.7527L9.64844 6.18311L8.60217 7.33529H9.12551L9.12555 8.87127Z" fill="#039F4E"/>
<path fill-rule="evenodd" clip-rule="evenodd" d="M12.3655 0H21.9914V8.0645H12.3655V0ZM12.8805 7.59968H21.4768L21.4764 0.517027H17.9763V2.79175H16.3806V0.517027H12.8805V7.59968Z" fill="#039F4E"/>
<path d="M19.3403 6.45184H20.3868V4.91586H20.9678L19.8633 3.76367L18.8173 4.91586H19.3403L19.3403 6.45184Z" fill="#039F4E"/>
<path fill-rule="evenodd" clip-rule="evenodd" d="M22.5806 0H32.258V8.0645H22.5806V0ZM23.098 7.59968H31.7404L31.7399 0.517027H28.221V2.79175H26.6168V0.517027H23.098V7.59968Z" fill="#039F4E"/>
<path d="M29.6133 6.45184H30.6597V4.91586H31.1828L30.1367 3.76367L29.0322 4.91586H29.6132L29.6133 6.45184Z" fill="#039F4E"/>
<path d="M6.528 30.624V31.98H4.296V39H2.616V31.98H0.384V30.624H6.528ZM9.43378 33.384C9.64978 33.032 9.92978 32.756 10.2738 32.556C10.6258 32.356 11.0258 32.256 11.4738 32.256V34.02H11.0298C10.5018 34.02 10.1018 34.144 9.82978 34.392C9.56578 34.64 9.43378 35.072 9.43378 35.688V39H7.75378V32.352H9.43378V33.384ZM12.1733 35.652C12.1733 34.98 12.3053 34.384 12.5693 33.864C12.8413 33.344 13.2053 32.944 13.6613 32.664C14.1253 32.384 14.6413 32.244 15.2093 32.244C15.7053 32.244 16.1373 32.344 16.5053 32.544C16.8813 32.744 17.1813 32.996 17.4053 33.3V32.352H19.0973V39H17.4053V38.028C17.1893 38.34 16.8893 38.6 16.5053 38.808C16.1293 39.008 15.6933 39.108 15.1973 39.108C14.6373 39.108 14.1253 38.964 13.6613 38.676C13.2053 38.388 12.8413 37.984 12.5693 37.464C12.3053 36.936 12.1733 36.332 12.1733 35.652ZM17.4053 35.676C17.4053 35.268 17.3253 34.92 17.1653 34.632C17.0053 34.336 16.7893 34.112 16.5173 33.96C16.2453 33.8 15.9533 33.72 15.6413 33.72C15.3293 33.72 15.0413 33.796 14.7773 33.948C14.5133 34.1 14.2973 34.324 14.1293 34.62C13.9693 34.908 13.8893 35.252 13.8893 35.652C13.8893 36.052 13.9693 36.404 14.1293 36.708C14.2973 37.004 14.5133 37.232 14.7773 37.392C15.0493 37.552 15.3373 37.632 15.6413 37.632C15.9533 37.632 16.2453 37.556 16.5173 37.404C16.7893 37.244 17.0053 37.02 17.1653 36.732C17.3253 36.436 17.4053 36.084 17.4053 35.676ZM24.4222 32.256C25.2142 32.256 25.8542 32.508 26.3422 33.012C26.8302 33.508 27.0742 34.204 27.0742 35.1V39H25.3942V35.328C25.3942 34.8 25.2622 34.396 24.9982 34.116C24.7342 33.828 24.3742 33.684 23.9182 33.684C23.4542 33.684 23.0862 33.828 22.8142 34.116C22.5502 34.396 22.4182 34.8 22.4182 35.328V39H20.7382V32.352H22.4182V33.18C22.6422 32.892 22.9262 32.668 23.2702 32.508C23.6222 32.34 24.0062 32.256 24.4222 32.256ZM31.2158 39.108C30.6718 39.108 30.1838 39.012 29.7518 38.82C29.3198 38.62 28.9758 38.352 28.7198 38.016C28.4718 37.68 28.3358 37.308 28.3118 36.9H30.0038C30.0358 37.156 30.1598 37.368 30.3758 37.536C30.5998 37.704 30.8758 37.788 31.2038 37.788C31.5238 37.788 31.7718 37.724 31.9478 37.596C32.1318 37.468 32.2238 37.304 32.2238 37.104C32.2238 36.888 32.1118 36.728 31.8878 36.624C31.6718 36.512 31.3238 36.392 30.8438 36.264C30.3478 36.144 29.9398 36.02 29.6198 35.892C29.3078 35.764 29.0358 35.568 28.8038 35.304C28.5798 35.04 28.4678 34.684 28.4678 34.236C28.4678 33.868 28.5718 33.532 28.7798 33.228C28.9958 32.924 29.2998 32.684 29.6918 32.508C30.0918 32.332 30.5598 32.244 31.0958 32.244C31.8878 32.244 32.5198 32.444 32.9918 32.844C33.4638 33.236 33.7238 33.768 33.7718 34.44H32.1638C32.1398 34.176 32.0278 33.968 31.8278 33.816C31.6358 33.656 31.3758 33.576 31.0478 33.576C30.7438 33.576 30.5078 33.632 30.3398 33.744C30.1798 33.856 30.0998 34.012 30.0998 34.212C30.0998 34.436 30.2118 34.608 30.4358 34.728C30.6598 34.84 31.0078 34.956 31.4798 35.076C31.9598 35.196 32.3558 35.32 32.6678 35.448C32.9798 35.576 33.2478 35.776 33.4718 36.048C33.7038 36.312 33.8238 36.664 33.8318 37.104C33.8318 37.488 33.7238 37.832 33.5078 38.136C33.2998 38.44 32.9958 38.68 32.5958 38.856C32.2038 39.024 31.7438 39.108 31.2158 39.108ZM36.8908 33.312C37.1068 33.008 37.4028 32.756 37.7788 32.556C38.1628 32.348 38.5988 32.244 39.0868 32.244C39.6548 32.244 40.1668 32.384 40.6228 32.664C41.0868 32.944 41.4508 33.344 41.7148 33.864C41.9868 34.376 42.1228 34.972 42.1228 35.652C42.1228 36.332 41.9868 36.936 41.7148 37.464C41.4508 37.984 41.0868 38.388 40.6228 38.676C40.1668 38.964 39.6548 39.108 39.0868 39.108C38.5988 39.108 38.1668 39.008 37.7908 38.808C37.4228 38.608 37.1228 38.356 36.8908 38.052V42.168H35.2108V32.352H36.8908V33.312ZM40.4068 35.652C40.4068 35.252 40.3228 34.908 40.1548 34.62C39.9948 34.324 39.7788 34.1 39.5068 33.948C39.2428 33.796 38.9548 33.72 38.6428 33.72C38.3388 33.72 38.0508 33.8 37.7788 33.96C37.5148 34.112 37.2988 34.336 37.1308 34.632C36.9708 34.928 36.8908 35.276 36.8908 35.676C36.8908 36.076 36.9708 36.424 37.1308 36.72C37.2988 37.016 37.5148 37.244 37.7788 37.404C38.0508 37.556 38.3388 37.632 38.6428 37.632C38.9548 37.632 39.2428 37.552 39.5068 37.392C39.7788 37.232 39.9948 37.004 40.1548 36.708C40.3228 36.412 40.4068 36.06 40.4068 35.652ZM46.2956 39.108C45.6556 39.108 45.0796 38.968 44.5676 38.688C44.0556 38.4 43.6516 37.996 43.3556 37.476C43.0676 36.956 42.9236 36.356 42.9236 35.676C42.9236 34.996 43.0716 34.396 43.3676 33.876C43.6716 33.356 44.0836 32.956 44.6036 32.676C45.1236 32.388 45.7036 32.244 46.3436 32.244C46.9836 32.244 47.5636 32.388 48.0836 32.676C48.6036 32.956 49.0116 33.356 49.3076 33.876C49.6116 34.396 49.7636 34.996 49.7636 35.676C49.7636 36.356 49.6076 36.956 49.2956 37.476C48.9916 37.996 48.5756 38.4 48.0476 38.688C47.5276 38.968 46.9436 39.108 46.2956 39.108ZM46.2956 37.644C46.5996 37.644 46.8836 37.572 47.1476 37.428C47.4196 37.276 47.6356 37.052 47.7956 36.756C47.9556 36.46 48.0356 36.1 48.0356 35.676C48.0356 35.044 47.8676 34.56 47.5316 34.224C47.2036 33.88 46.7996 33.708 46.3196 33.708C45.8396 33.708 45.4356 33.88 45.1076 34.224C44.7876 34.56 44.6276 35.044 44.6276 35.676C44.6276 36.308 44.7836 36.796 45.0956 37.14C45.4156 37.476 45.8156 37.644 46.2956 37.644ZM52.676 33.384C52.892 33.032 53.172 32.756 53.516 32.556C53.868 32.356 54.268 32.256 54.716 32.256V34.02H54.272C53.744 34.02 53.344 34.144 53.072 34.392C52.808 34.64 52.676 35.072 52.676 35.688V39H50.996V32.352H52.676V33.384ZM57.8035 33.732V36.948C57.8035 37.172 57.8555 37.336 57.9595 37.44C58.0715 37.536 58.2555 37.584 58.5115 37.584H59.2915V39H58.2355C56.8195 39 56.1115 38.312 56.1115 36.936V33.732H55.3195V32.352H56.1115V30.708H57.8035V32.352H59.2915V33.732H57.8035ZM3.372 54.108C2.828 54.108 2.34 54.012 1.908 53.82C1.476 53.62 1.132 53.352 0.876 53.016C0.628 52.68 0.492 52.308 0.468 51.9H2.16C2.192 52.156 2.316 52.368 2.532 52.536C2.756 52.704 3.032 52.788 3.36 52.788C3.68 52.788 3.928 52.724 4.104 52.596C4.288 52.468 4.38 52.304 4.38 52.104C4.38 51.888 4.268 51.728 4.044 51.624C3.828 51.512 3.48 51.392 3 51.264C2.504 51.144 2.096 51.02 1.776 50.892C1.464 50.764 1.192 50.568 0.96 50.304C0.736 50.04 0.624 49.684 0.624 49.236C0.624 48.868 0.728 48.532 0.936 48.228C1.152 47.924 1.456 47.684 1.848 47.508C2.248 47.332 2.716 47.244 3.252 47.244C4.044 47.244 4.676 47.444 5.148 47.844C5.62 48.236 5.88 48.768 5.928 49.44H4.32C4.296 49.176 4.184 48.968 3.984 48.816C3.792 48.656 3.532 48.576 3.204 48.576C2.9 48.576 2.664 48.632 2.496 48.744C2.336 48.856 2.256 49.012 2.256 49.212C2.256 49.436 2.368 49.608 2.592 49.728C2.816 49.84 3.164 49.956 3.636 50.076C4.116 50.196 4.512 50.32 4.824 50.448C5.136 50.576 5.404 50.776 5.628 51.048C5.86 51.312 5.98 51.664 5.988 52.104C5.988 52.488 5.88 52.832 5.664 53.136C5.456 53.44 5.152 53.68 4.752 53.856C4.36 54.024 3.9 54.108 3.372 54.108ZM10.3191 54.108C9.67906 54.108 9.10306 53.968 8.59106 53.688C8.07906 53.4 7.67506 52.996 7.37906 52.476C7.09106 51.956 6.94706 51.356 6.94706 50.676C6.94706 49.996 7.09506 49.396 7.39106 48.876C7.69506 48.356 8.10706 47.956 8.62706 47.676C9.14706 47.388 9.72706 47.244 10.3671 47.244C11.0071 47.244 11.5871 47.388 12.1071 47.676C12.6271 47.956 13.0351 48.356 13.3311 48.876C13.6351 49.396 13.7871 49.996 13.7871 50.676C13.7871 51.356 13.6311 51.956 13.3191 52.476C13.0151 52.996 12.5991 53.4 12.0711 53.688C11.5511 53.968 10.9671 54.108 10.3191 54.108ZM10.3191 52.644C10.6231 52.644 10.9071 52.572 11.1711 52.428C11.4431 52.276 11.6591 52.052 11.8191 51.756C11.9791 51.46 12.0591 51.1 12.0591 50.676C12.0591 50.044 11.8911 49.56 11.5551 49.224C11.2271 48.88 10.8231 48.708 10.3431 48.708C9.86306 48.708 9.45906 48.88 9.13106 49.224C8.81106 49.56 8.65106 50.044 8.65106 50.676C8.65106 51.308 8.80706 51.796 9.11906 52.14C9.43906 52.476 9.83906 52.644 10.3191 52.644ZM14.5874 50.676C14.5874 49.988 14.7274 49.388 15.0074 48.876C15.2874 48.356 15.6754 47.956 16.1714 47.676C16.6674 47.388 17.2354 47.244 17.8754 47.244C18.6994 47.244 19.3794 47.452 19.9154 47.868C20.4594 48.276 20.8234 48.852 21.0074 49.596H19.1954C19.0994 49.308 18.9354 49.084 18.7034 48.924C18.4794 48.756 18.1994 48.672 17.8634 48.672C17.3834 48.672 17.0034 48.848 16.7234 49.2C16.4434 49.544 16.3034 50.036 16.3034 50.676C16.3034 51.308 16.4434 51.8 16.7234 52.152C17.0034 52.496 17.3834 52.668 17.8634 52.668C18.5434 52.668 18.9874 52.364 19.1954 51.756H21.0074C20.8234 52.476 20.4594 53.048 19.9154 53.472C19.3714 53.896 18.6914 54.108 17.8754 54.108C17.2354 54.108 16.6674 53.968 16.1714 53.688C15.6754 53.4 15.2874 53 15.0074 52.488C14.7274 51.968 14.5874 51.364 14.5874 50.676ZM23.0902 46.56C22.7942 46.56 22.5462 46.468 22.3462 46.284C22.1542 46.092 22.0582 45.856 22.0582 45.576C22.0582 45.296 22.1542 45.064 22.3462 44.88C22.5462 44.688 22.7942 44.592 23.0902 44.592C23.3862 44.592 23.6302 44.688 23.8222 44.88C24.0222 45.064 24.1222 45.296 24.1222 45.576C24.1222 45.856 24.0222 46.092 23.8222 46.284C23.6302 46.468 23.3862 46.56 23.0902 46.56ZM23.9182 47.352V54H22.2382V47.352H23.9182ZM31.758 50.532C31.758 50.772 31.742 50.988 31.71 51.18H26.85C26.89 51.66 27.058 52.036 27.354 52.308C27.65 52.58 28.014 52.716 28.446 52.716C29.07 52.716 29.514 52.448 29.778 51.912H31.59C31.398 52.552 31.03 53.08 30.486 53.496C29.942 53.904 29.274 54.108 28.482 54.108C27.842 54.108 27.266 53.968 26.754 53.688C26.25 53.4 25.854 52.996 25.566 52.476C25.286 51.956 25.146 51.356 25.146 50.676C25.146 49.988 25.286 49.384 25.566 48.864C25.846 48.344 26.238 47.944 26.742 47.664C27.246 47.384 27.826 47.244 28.482 47.244C29.114 47.244 29.678 47.38 30.174 47.652C30.678 47.924 31.066 48.312 31.338 48.816C31.618 49.312 31.758 49.884 31.758 50.532ZM30.018 50.052C30.01 49.62 29.854 49.276 29.55 49.02C29.246 48.756 28.874 48.624 28.434 48.624C28.018 48.624 27.666 48.752 27.378 49.008C27.098 49.256 26.926 49.604 26.862 50.052H30.018ZM34.9403 48.732V51.948C34.9403 52.172 34.9923 52.336 35.0963 52.44C35.2083 52.536 35.3923 52.584 35.6483 52.584H36.4283V54H35.3723C33.9563 54 33.2483 53.312 33.2483 51.936V48.732H32.4563V47.352H33.2483V45.708H34.9403V47.352H36.4283V48.732H34.9403ZM43.9966 47.352L39.8806 57.144H38.0926L39.5326 53.832L36.8686 47.352H38.7526L40.4686 51.996L42.2086 47.352H43.9966Z" fill="black"/>
</svg>
